<?xml version="1.0" standalone="no"?>
<!DOCTYPE svg PUBLIC "-//W3C//DTD SVG 20010904//EN"
 "http://www.w3.org/TR/2001/REC-SVG-20010904/DTD/svg10.dtd">
<svg version="1.0" xmlns="http://www.w3.org/2000/svg"
 width="727.000000pt" height="727.000000pt" viewBox="0 0 727.000000 727.000000"
 preserveAspectRatio="xMidYMid meet">
<metadata>
Created by potrace 1.14, written by Peter Selinger 2001-2017
</metadata>
<g transform="translate(0.000000,727.000000) scale(0.100000,-0.100000)"
fill="#000000" stroke="none">
<path d="M0 6913 l0 -357 38 37 c21 21 42 34 47 30 4 -5 5 -3 2 3 -9 16 199
218 214 208 7 -4 9 -3 6 3 -8 13 61 76 74 67 5 -3 8 -2 7 3 -3 10 37 65 47 63
14 -2 94 73 88 83 -3 5 -1 7 5 4 16 -11 44 4 38 19 -3 9 2 14 13 14 10 0 24 7
31 15 7 8 23 15 36 15 16 0 22 4 18 14 -4 12 11 25 26 23 3 -1 23 17 45 38 21
22 39 38 40 35 0 -2 10 3 23 12 23 16 23 16 -20 21 -24 2 -208 5 -410 6 l-368
2 0 -358z"/>
<path d="M6810 7260 c-56 -7 -59 -9 -27 -15 26 -5 48 -26 40 -38 -4 -6 0 -8
10 -4 10 4 16 2 14 -5 -1 -6 4 -13 12 -16 9 -3 11 0 6 8 -4 6 11 0 34 -15 51
-34 54 -44 4 -15 l-38 23 29 -27 c16 -14 34 -26 39 -26 6 0 7 -3 4 -7 -10 -10
31 -35 45 -27 6 4 8 3 5 -3 -4 -6 0 -16 8 -23 8 -7 15 -10 15 -7 0 3 16 -9 35
-25 19 -17 32 -34 30 -38 -3 -4 3 -7 12 -6 10 0 18 -4 18 -11 0 -12 87 -83
102 -83 4 0 17 -12 27 -27 11 -14 14 -23 8 -19 -7 4 -12 3 -12 -1 0 -11 21
-33 31 -33 4 0 8 101 9 225 l1 225 -203 -2 c-112 -1 -228 -4 -258 -8z m346
-307 c-10 -10 -19 5 -10 18 6 11 8 11 12 0 2 -7 1 -15 -2 -18z"/>
<path d="M3395 6641 c-54 -14 -179 -79 -220 -115 -22 -20 -35 -35 -29 -36 6 0
22 10 35 23 40 36 79 58 111 63 17 2 41 10 53 18 41 27 230 20 251 -9 7 -9 25
-20 41 -24 15 -4 32 -17 38 -29 5 -12 13 -22 17 -22 5 0 8 -9 8 -20 0 -11 -4
-20 -10 -20 -5 0 -18 -10 -29 -21 -21 -22 -34 -26 -215 -59 -128 -23 -139 -24
-131 -7 4 6 0 4 -7 -5 -12 -14 -27 -15 -96 -11 -45 3 -82 9 -82 13 0 4 11 24
25 44 14 20 25 41 25 46 0 5 6 7 14 4 7 -3 26 6 42 19 52 43 129 64 224 62
134 -4 154 -12 143 -56 -4 -15 -2 -18 12 -12 13 4 16 3 11 -5 -4 -7 -13 -12
-21 -12 -7 0 -15 -4 -17 -8 -1 -5 -23 -16 -48 -25 -40 -15 -41 -16 -10 -11 47
8 101 35 114 57 9 15 5 23 -21 47 -81 73 -273 67 -399 -13 -53 -33 -134 -113
-134 -132 0 -8 -8 -16 -17 -17 -37 -3 -48 -5 -63 -11 -8 -3 -40 -11 -70 -18
-117 -26 -259 -101 -367 -196 -129 -113 -262 -332 -314 -519 -31 -110 -33
-251 -3 -290 55 -75 140 -89 251 -41 73 31 73 31 73 12 0 -9 -24 -22 -67 -35
-79 -23 -90 -29 -93 -50 -5 -32 1 -51 20 -67 11 -10 25 -32 31 -50 6 -18 15
-31 20 -28 8 6 14 -25 10 -49 -3 -14 21 -26 51 -26 15 0 32 -8 37 -17 9 -16
10 -16 11 -2 0 27 24 29 47 3 12 -13 18 -24 15 -24 -4 0 0 -5 8 -10 13 -8 13
-11 -1 -22 -19 -15 -31 -56 -19 -63 5 -3 13 3 19 12 10 17 10 17 11 1 0 -11 5
-15 15 -12 9 4 15 0 15 -9 0 -18 27 -30 43 -20 7 4 6 -1 -2 -10 -16 -20 -35
-23 -26 -4 4 6 -1 3 -9 -7 -23 -29 -4 -40 32 -19 33 19 58 10 29 -11 -22 -17
-22 -28 3 -46 19 -14 19 -15 3 -22 -10 -3 17 -7 61 -7 84 -1 176 18 238 50 46
23 94 87 109 143 17 68 21 78 26 73 6 -7 -21 -97 -40 -133 -39 -75 -136 -127
-266 -143 -46 -6 -94 -8 -106 -5 -13 3 -26 1 -29 -5 -5 -7 9 -11 40 -11 37 0
44 -3 35 -13 -8 -10 -7 -17 1 -25 8 -8 8 -15 -2 -26 -7 -9 -10 -23 -6 -31 3
-9 0 -15 -9 -15 -8 0 -15 -9 -15 -19 0 -11 -4 -22 -9 -25 -5 -4 -12 -30 -16
-59 -4 -28 -12 -60 -17 -71 -7 -13 -7 -16 1 -12 17 11 13 -5 -5 -18 -8 -6 -17
-20 -19 -31 -2 -11 -4 -22 -4 -25 -1 -3 -5 1 -10 9 -7 11 -11 9 -20 -8 -11
-19 -9 -21 16 -22 25 -2 25 -2 5 -6 -13 -3 -30 1 -38 8 -12 10 -17 7 -27 -20
-6 -17 -15 -31 -20 -31 -5 0 -4 -7 3 -16 11 -13 10 -16 -6 -20 -18 -5 -20 -13
-17 -67 1 -34 5 -74 9 -89 3 -14 2 -34 -4 -43 -6 -12 -5 -26 3 -44 7 -14 21
-43 30 -63 10 -21 21 -38 26 -38 5 0 9 -8 9 -18 0 -11 8 -27 19 -36 10 -9 21
-29 24 -44 3 -15 24 -45 46 -67 31 -31 40 -48 41 -74 0 -26 12 -50 47 -94 37
-47 48 -71 55 -116 5 -31 13 -58 18 -59 20 -7 9 -36 -24 -67 -38 -35 -47 -39
-261 -124 -82 -32 -238 -99 -345 -149 -107 -49 -239 -106 -293 -127 -209 -80
-356 -228 -562 -565 -104 -170 -177 -314 -200 -396 -9 -33 -36 -122 -60 -199
-23 -77 -57 -189 -75 -250 -90 -308 -198 -526 -453 -913 -68 -104 -82 -120
-89 -103 -4 12 -12 21 -18 21 -6 0 -8 -5 -4 -13 5 -6 -15 8 -43 33 -34 30 -47
48 -39 53 7 6 5 7 -5 4 -18 -6 -79 21 -79 34 0 5 -5 9 -11 9 -5 0 -7 -5 -3
-12 4 -7 3 -8 -4 -4 -6 4 -9 13 -5 21 3 8 0 15 -6 15 -6 0 -11 -8 -12 -17 0
-11 -3 -13 -6 -5 -2 6 -10 9 -16 5 -7 -3 -9 -3 -5 2 4 4 3 14 -3 22 -6 7 -9
13 -6 13 3 0 -24 28 -60 62 -36 35 -69 62 -74 61 -4 -2 -29 23 -56 54 -26 30
-63 69 -80 86 -18 16 -35 38 -38 48 -21 64 -25 -20 -25 -466 l0 -485 3635 0
3635 0 0 995 0 996 -49 73 c-97 143 -211 274 -302 346 -29 22 -107 73 -173
112 -67 39 -258 162 -426 273 -388 258 -489 313 -795 434 -131 52 -221 95
-246 117 -9 8 -40 21 -70 28 -30 8 -75 26 -99 40 -47 27 -112 34 -140 16 -12
-8 -12 -10 -1 -10 8 0 12 -3 9 -6 -3 -3 -14 -1 -25 5 -10 6 -41 22 -70 35
l-52 26 -16 -53 c-9 -28 -19 -59 -22 -67 -4 -8 -7 -17 -8 -20 -30 -89 -97
-210 -115 -210 -11 0 10 52 25 62 5 4 6 8 1 8 -5 0 -4 6 1 13 6 6 16 30 23 52
7 22 17 46 23 53 5 6 6 12 1 12 -5 0 -4 4 1 8 15 10 35 73 41 129 5 40 2 53
-16 76 -12 15 -27 27 -35 27 -7 0 -25 14 -39 31 -25 29 -26 30 -26 7 0 -13 -7
-45 -15 -71 -8 -27 -14 -52 -14 -55 4 -28 -4 -51 -18 -55 -17 -4 -17 -5 0 -6
9 0 17 -6 17 -12 0 -5 -4 -8 -9 -4 -6 3 -15 -3 -20 -14 -9 -15 -7 -20 9 -24
11 -3 25 -19 31 -36 6 -17 15 -31 20 -31 11 0 2 -75 -13 -104 -13 -25 -45 -57
-73 -72 -107 -60 -196 -103 -222 -109 -30 -6 -33 -4 -33 17 0 18 2 20 10 8 8
-13 10 -12 10 3 0 9 7 17 16 17 9 0 14 6 11 13 -2 6 -10 11 -17 9 -7 -2 -11
10 -10 35 1 21 1 43 0 48 -1 6 -3 21 -3 35 -2 18 -7 24 -19 22 -20 -3 -25 24
-6 30 7 3 9 12 4 24 -7 18 -8 18 -19 -2 -7 -12 -18 -19 -25 -16 -11 3 -11 0 0
-19 7 -13 17 -27 22 -30 13 -10 -30 -30 -56 -26 -13 2 -23 10 -23 17 0 7 -9
16 -19 20 -13 4 -16 9 -8 14 6 3 9 12 7 19 -2 7 16 25 40 40 56 36 114 86 128
112 7 13 -6 7 -36 -17 -53 -44 -57 -45 -57 -17 0 14 5 19 14 16 14 -6 31 19
27 37 -1 5 4 13 11 18 10 7 9 12 -6 23 -11 8 -16 18 -12 22 4 4 11 2 15 -6 13
-20 43 16 35 43 -4 11 -3 18 1 14 7 -7 45 22 45 35 0 5 7 15 15 23 8 9 15 29
15 45 0 29 14 39 24 17 3 -7 4 -4 3 7 -1 14 4 20 18 20 22 0 22 13 0 59 -13
25 -13 27 1 15 14 -11 18 -10 30 6 8 10 14 22 14 27 0 4 7 8 15 8 8 0 15 5 15
10 0 6 -7 10 -15 10 -20 0 -19 16 1 24 10 4 14 14 11 26 -3 11 0 18 6 17 16
-3 37 45 47 108 5 30 18 76 30 102 15 35 19 58 14 90 -4 29 -1 54 9 76 8 17
15 52 16 76 0 27 8 52 18 64 12 13 14 21 7 24 -12 4 -7 50 7 59 15 9 10 66 -7
85 -14 15 -14 23 -3 53 7 20 21 39 31 42 25 8 50 60 50 105 -1 27 -12 54 -42
98 -44 64 -62 74 -80 41 -6 -11 -15 -18 -21 -15 -21 14 -7 -29 17 -47 26 -21
45 -57 37 -71 -7 -12 -43 12 -43 29 0 8 -4 13 -9 10 -5 -3 -9 -27 -9 -53 0
-44 -6 -107 -18 -173 -3 -14 -10 -54 -16 -90 -5 -36 -14 -67 -18 -70 -4 -3
-10 -16 -11 -29 -5 -34 -44 -71 -68 -64 -14 4 -24 -3 -36 -27 -12 -24 -21 -30
-36 -25 -13 5 -25 1 -33 -10 -7 -11 -21 -15 -37 -13 l-24 5 25 11 c22 9 23 11
5 12 -19 1 -18 2 3 10 15 6 22 18 22 35 0 14 5 25 10 25 6 0 10 -5 10 -12 0
-6 3 -9 6 -5 4 3 3 14 -1 24 -13 30 -14 47 -3 54 7 4 7 9 -1 13 -6 4 -11 2
-11 -4 0 -6 -4 -8 -10 -5 -5 3 -10 -1 -10 -9 0 -8 -9 -18 -20 -21 -11 -3 -20
-11 -20 -16 0 -6 9 -7 20 -4 12 4 20 2 20 -5 0 -6 -4 -9 -9 -5 -5 3 -11 -5
-13 -17 -2 -15 -9 -22 -21 -22 -20 2 -21 -1 -7 -26 7 -14 6 -23 -6 -34 -8 -9
-20 -16 -25 -16 -6 0 -7 -5 -4 -10 10 -16 -15 -80 -31 -80 -8 0 -17 -13 -20
-30 -8 -36 -24 -40 -24 -5 0 31 -7 31 -31 3 l-19 -21 6 34 c6 32 5 33 -9 13
-9 -11 -15 -28 -14 -38 1 -11 -4 -21 -10 -23 -7 -3 -13 0 -13 6 0 6 4 11 10
11 6 0 6 9 0 26 -9 22 -8 25 5 20 9 -3 15 0 15 9 0 7 -9 17 -20 20 -13 4 -20
15 -20 31 0 13 -5 24 -11 24 -5 0 -8 4 -4 9 3 5 1 12 -4 15 -4 3 -11 24 -15
47 -5 30 -10 39 -21 35 -9 -3 -15 0 -15 9 0 7 -14 23 -30 35 -27 19 -31 20
-46 6 -21 -21 -31 -20 -39 5 -5 14 -13 19 -25 16 -11 -3 -21 0 -24 7 -2 6 -5
2 -5 -8 -1 -18 -2 -19 -21 -1 -17 15 -24 16 -46 7 -33 -16 -44 -15 -44 3 0 9
-9 15 -22 15 -18 0 -20 -2 -8 -10 8 -5 11 -13 6 -17 -4 -4 -13 0 -20 10 -13
17 -36 23 -36 9 0 -4 6 -14 13 -21 6 -8 -3 -3 -20 9 -36 26 -42 36 -17 26 8
-3 12 -2 9 3 -3 6 -22 8 -43 6 -20 -3 -29 -2 -19 1 9 3 17 9 17 14 0 5 8 8 18
7 16 -1 142 77 142 89 0 3 -4 3 -9 0 -5 -3 -22 1 -39 10 -35 17 -272 28 -272
12 0 -5 -6 -16 -14 -24 -11 -11 -16 -11 -20 -1 -5 9 -7 9 -12 0 -12 -27 -34
-14 -30 17 4 34 -8 47 -28 31 -10 -8 -21 -2 -45 24 -34 38 -61 45 -61 17 0
-10 -6 -30 -12 -44 -11 -22 -19 -26 -55 -25 -24 0 -53 -7 -69 -17 -40 -27 -85
-38 -101 -25 -15 13 -17 86 -4 108 6 10 20 12 45 8 31 -5 40 -1 71 29 19 18
37 34 40 34 3 0 6 1 8 1 1 1 26 2 54 3 29 1 56 5 59 9 4 4 16 7 26 7 10 0 23
9 30 20 7 11 23 20 34 20 17 0 21 5 17 20 -3 12 0 20 7 20 7 0 10 -6 7 -13 -8
-21 8 -38 27 -31 17 6 17 17 2 54 -8 21 11 50 22 32 10 -14 45 -5 36 9 -3 5
-10 7 -15 3 -5 -3 -8 0 -7 7 2 7 -10 15 -27 19 -26 4 -30 10 -31 40 -1 19 -6
50 -12 68 -6 18 -7 30 -2 27 5 -3 11 -1 15 5 17 28 54 -8 116 -113 23 -40 53
-85 67 -101 21 -27 22 -31 8 -42 -17 -12 -20 -32 -8 -51 5 -7 32 -15 60 -18
43 -4 52 -3 52 11 0 8 6 14 13 11 6 -2 11 -10 9 -17 -2 -7 3 -10 11 -7 7 3 19
-4 26 -14 6 -11 16 -17 21 -14 6 4 7 12 3 18 -4 7 4 5 17 -4 14 -9 25 -21 25
-27 0 -6 3 -14 8 -18 13 -13 7 -24 -9 -17 -20 7 -44 -21 -44 -51 0 -12 3 -16
8 -10 4 6 22 14 40 17 24 5 32 3 32 -8 0 -8 6 -12 13 -10 6 3 24 -3 39 -12 47
-32 167 -141 160 -147 -3 -4 8 -6 25 -4 19 1 40 -5 51 -16 21 -18 40 -7 26 16
-4 7 -9 23 -10 36 -2 13 -16 47 -32 75 -16 29 -27 58 -24 66 3 10 -1 13 -15 9
-16 -4 -19 -1 -16 13 3 10 9 16 14 13 5 -3 9 0 9 5 0 6 -9 11 -21 11 -13 0
-18 -4 -13 -12 4 -6 3 -8 -3 -5 -5 3 -7 22 -5 42 4 30 11 39 38 53 26 12 34
22 34 43 0 15 7 29 14 32 10 4 13 1 9 -9 -3 -7 0 -14 6 -14 6 0 11 10 11 21 0
19 -4 21 -37 15 -38 -6 -38 -6 -12 9 42 23 43 42 3 43 -39 2 -86 23 -66 30 9
3 10 8 2 17 -8 10 4 14 57 20 84 9 128 24 64 22 -27 -1 -46 3 -49 11 -2 7 -19
12 -38 12 -21 0 -33 -4 -29 -10 3 -5 -3 -10 -15 -10 -12 0 -18 4 -15 10 3 5
-6 12 -20 16 -34 8 -52 41 -33 60 16 17 115 36 140 28 10 -3 18 -1 18 5 0 5 9
13 20 16 26 8 16 25 -15 25 -13 0 -25 4 -27 8 -1 4 -33 23 -70 40 -70 34 -86
51 -43 47 16 -2 30 4 40 18 15 21 15 21 47 2 18 -10 46 -29 61 -42 44 -36 56
-27 15 12 -20 18 -34 36 -31 39 9 8 -58 38 -73 32 -8 -3 -13 -2 -10 3 3 5 -5
12 -19 15 -24 6 -36 26 -15 26 5 0 9 3 9 8 -5 27 3 52 16 52 8 0 15 8 15 18 0
16 7 17 73 11 89 -8 116 -19 150 -59 30 -35 42 -70 34 -100 -3 -11 1 -21 9
-24 10 -4 14 4 14 30 0 35 1 36 18 17 59 -65 98 -81 157 -64 38 10 60 -4 49
-33 -4 -11 -1 -16 10 -16 12 0 15 -6 10 -24 -3 -14 -2 -31 2 -38 5 -7 10 -44
11 -82 1 -38 7 -74 14 -80 9 -8 11 -7 6 6 -5 15 24 53 34 44 3 -3 4 11 4 30
-2 42 34 99 68 108 22 5 25 12 31 82 19 208 -57 693 -125 794 -9 14 -35 64
-58 111 -50 101 -131 195 -240 278 -136 103 -219 139 -345 148 -42 4 -69 12
-90 28 -21 16 -65 30 -138 44 -59 11 -117 25 -129 32 -26 14 -212 22 -254 10z
m1092 -1083 c4 -7 8 -26 8 -42 0 -16 6 -31 13 -34 7 -2 12 0 11 5 -4 20 2 34
11 28 6 -4 7 -11 4 -17 -4 -6 -1 -14 7 -18 8 -5 13 -32 15 -70 1 -50 6 -66 26
-88 28 -30 58 -73 58 -83 0 -3 -11 -11 -24 -17 -21 -9 -30 -4 -95 62 -44 44
-71 80 -71 93 0 12 -4 25 -10 28 -6 4 -10 -6 -10 -24 0 -16 -4 -33 -10 -36 -6
-4 -10 9 -10 33 l0 39 -82 8 c-46 4 -89 11 -95 17 -9 7 -13 7 -13 -1 0 -7 -5
-9 -12 -4 -7 4 -42 7 -78 7 -51 -1 -54 0 -15 3 30 2 55 10 62 20 11 14 14 14
37 -1 32 -21 60 -21 52 -1 -3 8 0 15 7 15 8 0 7 4 -3 11 -12 8 -10 10 9 5 19
-4 31 2 50 23 15 15 35 33 46 39 27 15 102 15 112 0z m-927 -213 c-7 -8 -17
-15 -22 -15 -6 0 -5 7 2 15 7 8 17 15 22 15 6 0 5 -7 -2 -15z m-49 -33 c-6 -2
-21 -21 -31 -43 -19 -37 -42 -50 -54 -30 -11 17 -59 19 -90 3 -17 -8 -39 -19
-48 -24 -13 -6 -20 -2 -29 13 -6 11 -8 23 -5 26 9 9 95 22 152 22 43 1 55 6
79 31 19 20 31 26 34 18 2 -6 -1 -14 -8 -16z m947 15 c9 -10 3 -13 -28 -12
-39 0 -42 9 -5 18 11 3 21 5 21 6 1 0 6 -5 12 -12z m-863 -34 c0 -28 -33 -93
-47 -93 -18 0 -26 -38 -17 -76 6 -21 11 -48 12 -59 1 -11 8 -21 15 -21 6 -1
16 -2 21 -3 11 -1 9 -54 -2 -62 -8 -6 38 -95 55 -105 7 -5 8 -2 2 7 -13 22
-11 79 4 79 7 0 10 -4 7 -10 -3 -5 0 -7 8 -4 10 3 21 -14 37 -58 13 -35 24
-67 25 -73 0 -5 20 -15 45 -23 48 -14 286 -12 325 3 15 6 17 5 10 -3 -31 -33
-287 -41 -377 -11 -97 32 -165 135 -193 295 -22 123 -16 165 30 211 18 18 35
33 37 33 1 0 3 -12 3 -27z m-1024 -210 c-4 -30 -22 -29 -50 1 -20 21 -22 31
-17 69 4 29 17 56 34 74 l27 28 5 -75 c3 -41 3 -85 1 -97z m904 97 c7 -22 6
-23 -9 -11 -9 7 -16 23 -16 34 0 26 15 12 25 -23z m-677 -32 c-2 -6 -20 -23
-39 -37 -18 -14 -29 -19 -22 -11 9 9 9 18 1 33 -8 16 -8 19 4 14 8 -3 21 -1
29 4 20 12 31 11 27 -3z m1042 -28 c0 -41 -11 -50 -34 -27 -16 15 -17 49 -2
59 25 17 36 7 36 -32z m160 9 c0 -10 -4 -19 -10 -19 -5 0 -10 12 -10 26 0 14
4 23 10 19 6 -3 10 -15 10 -26z m62 -13 c16 -11 14 -14 -18 -29 -49 -24 -56
-21 -36 13 19 33 28 36 54 16z m-805 -48 c-3 -8 -6 -5 -6 6 -1 11 2 17 5 13 3
-3 4 -12 1 -19z m183 2 c0 -5 -4 -10 -10 -10 -5 0 -10 5 -10 10 0 6 5 10 10
10 6 0 10 -4 10 -10z m-540 -42 c0 -7 9 -22 21 -34 l20 -22 -27 -6 c-14 -4
-39 -4 -55 -1 -31 7 -39 32 -14 41 8 4 15 12 15 19 0 14 20 25 33 18 4 -2 7
-9 7 -15z m-204 -23 c-1 -37 -3 -40 -25 -26 -10 6 -10 10 -1 16 6 4 9 13 6 20
-2 7 -2 16 1 19 14 13 19 4 19 -29z m514 -5 c0 -5 -7 -10 -15 -10 -8 0 -15 5
-15 10 0 6 7 10 15 10 8 0 15 -4 15 -10z m-339 -95 c0 -5 -5 -11 -12 -14 -7
-2 -9 1 -4 9 6 10 1 11 -19 6 -19 -5 -26 -3 -21 4 8 13 55 9 56 -5z m1809
-189 c0 -8 -4 -17 -8 -20 -4 -2 -8 4 -8 15 0 10 4 19 8 19 4 0 8 -6 8 -14z
m-610 -28 c0 -11 -12 -10 -30 2 -12 7 -10 9 8 7 12 0 22 -5 22 -9z m-990 -229
c0 -5 -9 -18 -21 -30 -15 -15 -24 -18 -32 -10 -8 8 -8 11 0 11 6 0 10 8 9 18
0 9 5 16 12 15 6 -2 12 2 12 8 0 5 5 7 10 4 6 -3 10 -10 10 -16z m-178 -174
c3 -14 -1 -30 -8 -36 -8 -6 -14 -23 -14 -38 0 -20 -2 -23 -10 -11 -5 8 -10 10
-10 4 0 -6 -7 -11 -15 -11 -8 0 -15 6 -15 14 0 7 5 13 11 13 7 0 9 10 5 25 -5
20 -2 27 14 33 12 4 21 11 21 15 -4 37 14 30 21 -8z m635 -1 c-3 -3 -12 -4
-19 -1 -8 3 -5 6 6 6 11 1 17 -2 13 -5z m148 -9 c28 -3 59 -7 70 -8 11 -1 23
-6 28 -12 4 -6 11 -4 17 5 5 8 10 10 10 4 0 -6 15 -18 33 -27 l32 -16 -30 -2
c-16 -1 -37 -2 -46 -3 -9 -1 -23 -7 -31 -13 -8 -7 -17 -11 -20 -8 -2 3 -31 5
-64 6 -77 1 -94 6 -94 29 0 11 -10 25 -22 32 -23 12 -23 12 7 19 17 3 37 5 45
3 8 -1 38 -6 65 -9z m-266 -11 c10 -3 11 -8 4 -15 -10 -10 -113 8 -113 20 0 7
87 3 109 -5z m-186 -24 c-9 -34 -113 -74 -128 -49 -9 13 8 25 70 51 53 22 64
22 58 -2z m485 -73 c95 -10 102 -12 102 -33 0 -26 -12 -35 -65 -53 -22 -8 -64
-25 -93 -38 -30 -14 -78 -30 -108 -36 -50 -10 -72 -25 -41 -28 14 -2 16 -1 82
16 28 8 51 10 53 5 4 -12 42 1 42 14 0 18 86 58 117 54 23 -2 27 -7 25 -25 -3
-23 13 -33 20 -13 2 6 18 12 36 15 33 4 33 3 26 -28 -5 -18 -9 -63 -9 -102 -1
-82 -11 -122 -30 -122 -7 0 -11 6 -8 14 3 7 9 13 15 13 5 0 6 4 3 10 -8 14
-44 -10 -52 -35 -6 -18 -7 -18 -13 5 -5 22 -11 25 -45 22 -106 -8 -125 -6
-151 19 -18 17 -23 19 -18 6 4 -12 1 -17 -10 -17 -9 0 -16 7 -16 15 0 8 -9 19
-20 25 -12 6 -20 7 -20 1 0 -5 -19 -2 -42 7 -32 13 -42 14 -46 4 -3 -9 -23
-11 -78 -6 -65 6 -74 5 -74 -10 0 -9 -7 -16 -15 -16 -9 0 -18 -7 -22 -16 -4
-11 -13 -14 -29 -10 -16 4 -24 2 -24 -6 0 -7 -12 2 -26 20 -14 18 -30 30 -35
27 -5 -4 -9 -2 -9 4 0 5 5 13 11 17 8 4 7 9 -2 16 -10 7 -11 11 -2 14 6 3 22
15 35 27 26 24 56 27 101 8 37 -14 58 -14 55 1 -2 8 9 11 35 9 28 -2 37 1 37
13 0 13 -12 16 -54 16 -76 0 -84 20 -9 21 171 4 235 14 268 41 16 14 -32 9
-61 -7 -33 -17 -90 -20 -99 -5 -5 7 -11 8 -19 1 -17 -15 -239 -13 -248 2 -4 7
-8 28 -8 48 0 39 22 58 45 39 9 -8 14 -5 17 8 7 24 59 33 171 31 42 -1 80 1
84 5 9 9 100 6 221 -7z m-861 -37 c4 -26 -14 -35 -22 -10 -7 21 3 46 13 35 3
-3 7 -14 9 -25z m1286 -57 c-7 -2 -19 -2 -25 0 -7 3 -2 5 12 5 14 0 19 -2 13
-5z m-343 -279 c0 -3 -7 -12 -15 -20 -12 -13 -15 -13 -15 -1 0 7 3 17 7 20 8
8 23 9 23 1z m595 -204 c3 -5 1 -10 -4 -10 -6 0 -11 5 -11 10 0 6 2 10 4 10 3
0 8 -4 11 -10z m-28 -32 c-3 -8 -6 -5 -6 6 -1 11 2 17 5 13 3 -3 4 -12 1 -19z
m-97 -218 c0 -5 -6 -10 -14 -10 -8 0 -18 5 -21 10 -3 6 3 10 14 10 12 0 21 -4
21 -10z m-76 -49 c3 -5 -3 -11 -15 -14 -16 -4 -18 -3 -8 9 13 16 16 17 23 5z
m-1158 -128 c-4 -9 -10 -52 -13 -95 -3 -43 -10 -78 -16 -78 -6 0 -8 29 -4 78
7 85 14 112 29 112 6 0 7 -8 4 -17z m-2771 -2473 c33 -33 57 -60 54 -60 -2 0
-31 27 -64 60 -33 33 -57 60 -54 60 2 0 31 -27 64 -60z"/>
<path d="M3300 4143 c0 -5 5 -15 10 -23 8 -12 10 -11 10 8 0 12 -4 22 -10 22
-5 0 -10 -3 -10 -7z"/>
<path d="M3430 4124 c0 -8 5 -12 10 -9 6 3 10 10 10 16 0 5 -4 9 -10 9 -5 0
-10 -7 -10 -16z"/>
<path d="M3880 3861 c0 -6 5 -13 10 -16 6 -3 10 1 10 9 0 9 -4 16 -10 16 -5 0
-10 -4 -10 -9z"/>
<path d="M3365 6502 c-12 -9 -36 -72 -27 -72 4 0 17 18 29 40 20 38 20 48 -2
32z"/>
<path d="M3051 6409 l-23 -31 26 17 c14 10 26 24 26 31 0 20 -3 18 -29 -17z"/>
<path d="M4090 5379 c0 -5 5 -7 10 -4 6 3 10 8 10 11 0 2 -4 4 -10 4 -5 0 -10
-5 -10 -11z"/>
<path d="M4295 5307 c-5 -12 -2 -24 9 -35 13 -13 16 -14 15 -2 0 8 -4 24 -9
35 -7 19 -8 19 -15 2z"/>
<path d="M4771 5069 c-27 -11 -25 -32 15 -155 13 -41 25 -91 25 -112 1 -34 2
-34 10 13 15 87 15 231 0 249 -15 18 -17 18 -50 5z"/>
<path d="M4158 5038 c5 -5 16 -8 23 -6 8 3 3 7 -10 11 -17 4 -21 3 -13 -5z"/>
<path d="M4125 5020 c3 -5 8 -10 11 -10 2 0 4 5 4 10 0 6 -5 10 -11 10 -5 0
-7 -4 -4 -10z"/>
<path d="M4071 4986 c2 -2 40 -6 84 -9 50 -4 74 -2 65 3 -14 9 -159 15 -149 6z"/>
<path d="M4100 4898 c0 -5 17 -6 38 -2 52 9 54 16 4 13 -23 -2 -42 -7 -42 -11z"/>
<path d="M4790 4682 c-8 -15 -22 -36 -31 -47 -25 -30 -34 -65 -16 -65 19 0 43
37 57 89 13 51 9 62 -10 23z"/>
<path d="M4427 4503 c-12 -11 -8 -33 6 -30 13 2 27 17 27 30 0 9 -24 9 -33 0z"/>
<path d="M4396 4458 c3 -4 16 -8 29 -8 13 0 27 -4 30 -10 8 -13 25 -13 25 1 0
5 -4 7 -10 4 -5 -3 -10 -2 -10 3 0 6 -15 12 -34 14 -19 2 -32 0 -30 -4z"/>
<path d="M3780 4430 c0 -5 5 -10 10 -10 6 0 10 5 10 10 0 6 -4 10 -10 10 -5 0
-10 -4 -10 -10z"/>
<path d="M4206 4367 c-13 -9 -16 -20 -11 -40 4 -15 11 -27 17 -27 5 0 7 -4 3
-9 -3 -5 0 -13 6 -17 8 -4 9 -3 5 4 -4 7 -1 12 8 12 20 0 21 16 2 23 -8 3 -20
15 -26 26 -8 17 -8 19 4 15 8 -3 17 -1 20 5 10 16 -10 21 -28 8z"/>
<path d="M4250 4349 c0 -5 5 -7 10 -4 6 3 10 8 10 11 0 2 -4 4 -10 4 -5 0 -10
-5 -10 -11z"/>
<path d="M4160 4330 c0 -5 5 -10 10 -10 6 0 10 5 10 10 0 6 -4 10 -10 10 -5 0
-10 -4 -10 -10z"/>
<path d="M4395 3439 c-11 -16 -1 -19 13 -3 7 8 8 14 3 14 -5 0 -13 -5 -16 -11z"/>
<path d="M4320 3316 c0 -2 8 -10 18 -17 15 -13 16 -12 3 4 -13 16 -21 21 -21
13z"/>
</g>
</svg>
